<svg width="83" height="82" viewBox="0 0 83 82" fill="none" xmlns="http://www.w3.org/2000/svg">
<circle cx="41.5" cy="41" r="41" fill="#986AEB"/>
<path d="M41.4998 25.2109C43.5935 25.2109 45.6015 26.0427 47.0819 27.5232C48.5624 29.0036 49.3942 31.0116 49.3942 33.1053C49.3942 35.1991 48.5624 37.2071 47.0819 38.6875C45.6015 40.168 43.5935 40.9998 41.4998 40.9998C39.406 40.9998 37.3981 40.168 35.9176 38.6875C34.4371 37.2071 33.6053 35.1991 33.6053 33.1053C33.6053 31.0116 34.4371 29.0036 35.9176 27.5232C37.3981 26.0427 39.406 25.2109 41.4998 25.2109ZM41.4998 44.947C50.2231 44.947 57.2886 48.4797 57.2886 52.8414V56.7886H25.7109V52.8414C25.7109 48.4797 32.7764 44.947 41.4998 44.947Z" fill="white"/>
</svg>
